<?xml version="1.0" encoding="UTF-8" standalone="no"?>
<svg version="1.1" xmlns="http://www.w3.org/2000/svg" xmlns:xlink="http://www.w3.org/1999/xlink" width="485.209" height="485.215">
	<g id="dp_dp001" transform="matrix(1,0,0,1,-0.00133333,0)">
		<path id="dp_path002" fill="#515151" stroke="none" stroke-width="0" d="M 471.881,407.567 L 360.567,296.243 C 343.981,322.039 322.031,343.977 296.236,360.564 L 407.56,471.888 C 425.332,489.656 454.147,489.656 471.881,471.888 C 489.653,454.149 489.653,425.333 471.881,407.567 Z "/>
		<path id="dp_path003" fill="#515151" stroke="none" stroke-width="0" d="M 363.909,181.955 C 363.909,81.4733 282.44,0 181.956,0 C 81.4747,0 0.00133333,81.4733 0.00133333,181.955 S 81.4747,363.905 181.956,363.905 C 282.44,363.905 363.909,282.437 363.909,181.955 Z M 181.956,318.416 C 106.704,318.416 45.4907,257.208 45.4907,181.956 C 45.4907,106.704 106.704,45.4907 181.956,45.4907 C 257.207,45.4907 318.424,106.704 318.424,181.956 C 318.424,257.208 257.207,318.416 181.956,318.416 Z "/>
		<path id="dp_path004" fill="#515151" stroke="none" stroke-width="0" d="M 75.8173,181.955 L 106.139,181.955 C 106.139,140.152 140.153,106.141 181.955,106.141 L 181.955,75.816 C 123.439,75.816 75.8173,123.437 75.8173,181.955 Z "/>
	</g>
</svg>